# xmcd CD database file
#
# Track frame offsets:
#	150
#	16141
#	43880
#	60735
#	87746
#	99929
#	118782
#	134189
#	152065
#	173313
#	187553
#	205048
#	224495
#	243220
#	260747
#	277159
#	290704
#	316054
#
# Disc length: 4398 seconds
#
# Revision: 0
# Processed by: cddbd v1.5.2PL0 Copyright (c) Steve Scherf et al.
# Submitted via: CDex 1.51
#
DISCID=09112c12
DTITLE=Various Artist - The spirit of New Orleans
DYEAR=2002
DGENRE=Jazz
TTITLE0=Buddy's Habit
TTITLE1=Do you know what it means
TTITLE2=While we danced at the Mardi gras
TTITLE3=I get the blues
TTITLE4=Yama Yama man
TTITLE5=Love letters in the sand
TTITLE6=San Antonio rose
TTITLE7=When we were together
TTITLE8=When your hair has turned to silver
TTITLE9=Freight Train
TTITLE10=Shlafe mein Prinzschen
TTITLE11=Rambling Rose
TTITLE12=Are you lonesome tonight
TTITLE13=High society
TTITLE14=maria
TTITLE15=Goin' home
TTITLE16=I found a million dollar baby
TTITLE17=Stevedore Stomp
EXTD=YEAR: 2002
EXTT0=
EXTT1=
EXTT2=
EXTT3=
EXTT4=
EXTT5=
EXTT6=
EXTT7=
EXTT8=
EXTT9=
EXTT10=
EXTT11=
EXTT12=
EXTT13=
EXTT14=
EXTT15=
EXTT16=
EXTT17=
PLAYORDER=
